<svg width="920" height="24" viewBox="0 0 920 24" fill="none" xmlns="http://www.w3.org/2000/svg">
<g clip-path="url(#clip0_1_282)">
<path fill-rule="evenodd" clip-rule="evenodd" d="M420 2.25C414.615 2.25 410.25 6.61522 410.25 12C410.25 17.3848 414.615 21.75 420 21.75C425.385 21.75 429.75 17.3848 429.75 12C429.744 6.61758 425.382 2.25568 420 2.25ZM420.75 20.2153V14.25H423C423.414 14.25 423.75 13.9142 423.75 13.5C423.75 13.0858 423.414 12.75 423 12.75H420.75V10.5C420.75 9.67157 421.422 9 422.25 9H423.75C424.164 9 424.5 8.66421 424.5 8.25C424.5 7.83579 424.164 7.5 423.75 7.5H422.25C420.593 7.5 419.25 8.84315 419.25 10.5V12.75H417C416.586 12.75 416.25 13.0858 416.25 13.5C416.25 13.9142 416.586 14.25 417 14.25H419.25V20.2153C414.858 19.8144 411.558 16.0299 411.759 11.6241C411.959 7.21827 415.59 3.74947 420 3.74947C424.41 3.74947 428.041 7.21827 428.241 11.6241C428.442 16.0299 425.142 19.8144 420.75 20.2153Z" fill="#4F7396"/>
</g>
<g clip-path="url(#clip1_1_282)">
<path fill-rule="evenodd" clip-rule="evenodd" d="M471.193 6.46313C471.077 6.18285 470.803 6.00006 470.5 6H467.647C466.836 4.61972 465.36 3.76579 463.759 3.75C462.575 3.73446 461.434 4.19754 460.595 5.03438C459.732 5.88138 459.247 7.04071 459.25 8.25V8.82094C455.476 7.82531 452.388 4.755 452.356 4.72219C452.15 4.51493 451.843 4.44566 451.569 4.54461C451.294 4.64356 451.102 4.89277 451.076 5.18344C450.672 9.66375 451.973 12.6619 453.138 14.3878C453.707 15.241 454.398 16.0055 455.19 16.6566C453.762 18.3 451.514 19.1634 451.489 19.1728C451.275 19.2531 451.109 19.4269 451.039 19.6448C450.968 19.8627 451.001 20.1008 451.128 20.2913C451.199 20.3962 451.48 20.7647 452.167 21.1087C453.017 21.5344 454.139 21.75 455.5 21.75C462.125 21.75 467.661 16.6481 468.227 10.0837L471.031 7.28062C471.245 7.06601 471.309 6.74335 471.193 6.46313ZM466.974 9.22031C466.845 9.34921 466.768 9.52049 466.757 9.70219C466.375 15.6169 461.432 20.25 455.5 20.25C454.51 20.25 453.812 20.1187 453.323 19.9613C454.402 19.3753 455.907 18.3675 456.874 16.9163C456.989 16.7438 457.027 16.5315 456.98 16.3298C456.933 16.128 456.804 15.9548 456.625 15.8512C456.581 15.8259 452.508 13.3819 452.5 6.85125C454 8.07 456.742 9.96094 459.875 10.4878C460.093 10.5245 460.315 10.4636 460.484 10.3215C460.652 10.1794 460.749 9.9704 460.75 9.75V8.25C460.748 7.44176 461.073 6.66702 461.65 6.10125C462.203 5.54686 462.957 5.23983 463.741 5.25C464.927 5.265 466.037 5.98875 466.501 7.05094C466.62 7.32382 466.89 7.50008 467.188 7.5H468.688L466.974 9.22031Z" fill="#4F7396"/>
</g>
<g clip-path="url(#clip2_1_282)">
<path fill-rule="evenodd" clip-rule="evenodd" d="M508.25 2.25H491.75C490.922 2.25 490.25 2.92157 490.25 3.75V20.25C490.25 21.0784 490.922 21.75 491.75 21.75H508.25C509.078 21.75 509.75 21.0784 509.75 20.25V3.75C509.75 2.92157 509.078 2.25 508.25 2.25ZM508.25 20.25H491.75V3.75H508.25V20.25ZM497 10.5V16.5C497 16.9142 496.664 17.25 496.25 17.25C495.836 17.25 495.5 16.9142 495.5 16.5V10.5C495.5 10.0858 495.836 9.75 496.25 9.75C496.664 9.75 497 10.0858 497 10.5ZM505.25 13.125V16.5C505.25 16.9142 504.914 17.25 504.5 17.25C504.086 17.25 503.75 16.9142 503.75 16.5V13.125C503.75 12.0895 502.911 11.25 501.875 11.25C500.839 11.25 500 12.0895 500 13.125V16.5C500 16.9142 499.664 17.25 499.25 17.25C498.836 17.25 498.5 16.9142 498.5 16.5V10.5C498.502 10.1198 498.788 9.80112 499.166 9.75852C499.544 9.71592 499.894 9.96285 499.98 10.3331C501.014 9.63174 502.351 9.55891 503.455 10.1438C504.559 10.7287 505.25 11.8756 505.25 13.125ZM497.375 7.875C497.375 8.49632 496.871 9 496.25 9C495.629 9 495.125 8.49632 495.125 7.875C495.125 7.25368 495.629 6.75 496.25 6.75C496.871 6.75 497.375 7.25368 497.375 7.875Z" fill="#4F7396"/>
</g>
<defs>
<clipPath id="clip0_1_282">
<rect width="24" height="24" fill="white" transform="translate(408)"/>
</clipPath>
<clipPath id="clip1_1_282">
<rect width="24" height="24" fill="white" transform="translate(448)"/>
</clipPath>
<clipPath id="clip2_1_282">
<rect width="24" height="24" fill="white" transform="translate(488)"/>
</clipPath>
</defs>
</svg>
