<svg width="17" height="17" viewBox="0 0 17 17" fill="none" xmlns="http://www.w3.org/2000/svg">
<path fill-rule="evenodd" clip-rule="evenodd" d="M16.8085 15.8844L12.7207 11.7974C15.182 8.84243 14.8838 4.47418 12.0437 1.88116C9.20358 -0.711861 4.82629 -0.61238 2.10692 2.10699C-0.612444 4.82635 -0.711925 9.20365 1.88109 12.0437C4.47411 14.8838 8.84237 15.1821 11.7973 12.7208L15.8843 16.8086C16.1395 17.0638 16.5533 17.0638 16.8085 16.8086C17.0637 16.5534 17.0637 16.1396 16.8085 15.8844ZM1.32432 7.2026C1.32432 3.95615 3.95609 1.32438 7.20253 1.32438C10.449 1.32438 13.0807 3.95615 13.0807 7.2026C13.0807 10.449 10.449 13.0808 7.20253 13.0808C3.95758 13.0772 1.32792 10.4476 1.32432 7.2026Z" fill="#4F7396"/>
</svg>
